<svg xmlns="http://www.w3.org/2000/svg" xmlns:xlink="http://www.w3.org/1999/xlink" width="30" height="24" viewBox="0 0 30 24"><defs><path id="54vza" d="M539.01 1602.07c0 .3-.1.5-.31.71l-1.45 1.42c-.42.4-1.04.4-1.46 0a14.7 14.7 0 0 0-10.28-4.15 14.7 14.7 0 0 0-10.27 4.15c-.42.4-1.04.4-1.46 0l-1.45-1.42a.9.9 0 0 1-.31-.7c0-.31.1-.51.31-.72 3.32-3.34 8-5.36 13.18-5.36 5.2 0 9.76 2.02 13.19 5.36.2.1.31.4.31.71zm-6.23 4.96a.96.96 0 0 1 0 1.42l-1.45 1.42c-.42.4-1.04.4-1.46 0a6.68 6.68 0 0 0-4.36-1.72 6.2 6.2 0 0 0-4.36 1.72c-.41.4-1.03.4-1.45 0l-1.45-1.42a.96.96 0 0 1 0-1.42 10.24 10.24 0 0 1 7.26-2.93c2.91 0 5.4 1.11 7.27 2.93zm-7.27 5.16c1.15 0 2.08.91 2.08 2.03 0 1.12-.93 2.02-2.08 2.02-1.14 0-2.07-.9-2.07-2.02s.93-2.03 2.07-2.03z"/></defs><g><g transform="translate(-511 -1594)"><use fill="#fff" xlink:href="#54vza"/></g></g></svg>