<svg xmlns="http://www.w3.org/2000/svg" xmlns:xlink="http://www.w3.org/1999/xlink" width="31" height="31" viewBox="0 0 31 31"><defs><path id="x8jga" d="M1110.65 1600.99h5.18c.69 1.54 1.1 3.23 1.17 5h-5.93a34.66 34.66 0 0 0-.42-5zm-2.26-7.1a13.57 13.57 0 0 1 6.93 6.1h-4.83c-.55-2.81-1.39-4.8-2.1-6.1zm-4.33 6.1v-7c1.07.05 2.1.21 3.1.5a20.3 20.3 0 0 1 2.33 6.5zm-6.58 12.02a34.4 34.4 0 0 1-.42-5h6v5zm0-11.02h5.58v5h-6c.02-1.88.18-3.53.41-5zm2.5-7.53c1-.27 2.02-.44 3.08-.47v7h-5.42c.61-3.15 1.59-5.27 2.34-6.53zm-8.32 6.52c1.55-2.8 4.06-4.99 7.1-6.13a20.98 20.98 0 0 0-2.12 6.13zm4.4 6.02H1090c.06-1.78.46-3.48 1.15-5.01h5.32a34.64 34.64 0 0 0-.41 5zm.42 6.01h-5.29a13.38 13.38 0 0 1-1.2-5h6.07c.02 1.88.19 3.53.42 5zm.17 1a20.5 20.5 0 0 0 2.13 6.15 13.55 13.55 0 0 1-7.11-6.15zm6.41 0v7c-1.05-.03-2.07-.2-3.04-.46a19.98 19.98 0 0 1-2.36-6.54zm6.4 0a20 20 0 0 1-2.34 6.52c-.98.27-2 .41-3.06.46v-6.98zm-5.4-6h6c-.02 1.88-.18 3.53-.42 5h-5.58zm6-1.01h-6v-5.01h5.6c.23 1.47.38 3.12.4 5zm1 1h5.93c-.06 1.79-.5 3.47-1.2 5.01h-5.15c.24-1.47.4-3.12.43-5zm4.25 6.01a13.5 13.5 0 0 1-6.94 6.1 20.54 20.54 0 0 0 2.11-6.1z"/></defs><g><g transform="translate(-1088 -1591)"><use fill="#fff" xlink:href="#x8jga"/></g></g></svg>