<svg xmlns="http://www.w3.org/2000/svg" xmlns:xlink="http://www.w3.org/1999/xlink" width="34" height="28" viewBox="0 0 34 28"><defs><path id="fb82a" d="M1379.24 1827.02h19.57c1.23 0 2.23 1 2.23 2.24v12.49c0 1.23-1 2.23-2.23 2.23h-10.14l-5.7 5.14v-5.14h-3.73c-1.24 0-2.24-1-2.24-2.23v-12.49c0-1.23 1-2.24 2.24-2.24zm22.73 15.82v-10.9h2.8c1.23 0 2.23.93 2.23 2.17v10.93c0 1.23-1 1.99-2.23 1.99h-3.74v5.1l-5.62-5.1h-4.3c-1.24 0-2.24-.76-2.24-1.99l10.94-.06c.94 0 2.16-1.2 2.16-2.14z"/></defs><g><g transform="translate(-1375 -1826)"><use fill="#7f8890" xlink:href="#fb82a"/></g></g></svg>