<svg xmlns="http://www.w3.org/2000/svg" xmlns:xlink="http://www.w3.org/1999/xlink" width="28" height="35" viewBox="0 0 28 35"><defs><path id="8m12a" d="M824 1622h-21a2 2 0 0 1-2-2v-24c0-1.1.9-2 2-2v24c0 1.1.9 2 2 2h4a2 2 0 0 0 2-2v-24h13a2 2 0 0 1 2 2v24a2 2 0 0 1-2 2zm-5-3h2v-2h-2zm0-3h2v-2h-2zm0-3h2v-2h-2zm0-3h2v-2h-2zm-3 9h2v-2h-2zm0-3h2v-2h-2zm0-3h2v-2h-2zm0-3h2v-2h-2zm8-13a1 1 0 0 0-1-1h-9a1 1 0 0 0-1 1v4a1 1 0 0 0 1 1h9a1 1 0 0 0 1-1zm0 11h-2v2h2zm0 3h-2v2h2zm0 3h-2v2h2zm0 3h-2v2h2zm-15 2h-4a1 1 0 0 1-1-1v-25a1 1 0 0 1 1-1h1.94v-2H808v2h1a1 1 0 0 1 1 1v25a1 1 0 0 1-1 1z"/></defs><g><g transform="translate(-799 -1588)"><use fill="#7f8890" xlink:href="#8m12a"/></g></g></svg>