<svg xmlns="http://www.w3.org/2000/svg" xmlns:xlink="http://www.w3.org/1999/xlink" width="33" height="33" viewBox="0 0 33 33"><defs><path id="r86va" d="M1406.6 1619.57l-.72.71a2 2 0 0 1-2.83 0l-5.68-5.67a1.98 1.98 0 0 1-.28-2.41l-3.1-3.1a10.03 10.03 0 1 1 1.49-1.35l3.03 3.03a1.98 1.98 0 0 1 2.4.28l5.68 5.67a2 2 0 0 1 0 2.84zm-11.08-18.57a7.52 7.52 0 0 0-10.74-6.77c.52.53 1.31 1.34 1.35 1.34-.81 0-3.48 2.67-3.48 3.54 0-.04-.85-.84-1.4-1.37a7.45 7.45 0 0 0-.77 3.26 7.52 7.52 0 0 0 15.04 0z"/></defs><g><g transform="translate(-1376 -1590)"><use fill="#7f8890" xlink:href="#r86va"/></g></g></svg>